# 3ds Max Wavefront OBJ Exporter v0.97b - (c)2007 guruware
# File Created: 24.01.2017 00:57:18

#
# object Sphere001
#

v  0.0000 126.2527 -0.0000
v  -0.0000 0.0000 -160.2711
v  -31.2673 0.0000 -157.1915
v  -61.3331 0.0000 -148.0712
v  -89.0418 0.0000 -133.2606
v  -113.3288 0.0000 -113.3288
v  -133.2606 0.0000 -89.0418
v  -148.0712 0.0000 -61.3331
v  -157.1915 0.0000 -31.2673
v  -160.2711 0.0000 0.0001
v  -157.1915 0.0000 31.2674
v  -148.0712 0.0000 61.3332
v  -133.2605 0.0000 89.0419
v  -113.3287 0.0000 113.3288
v  -89.0418 0.0000 133.2606
v  -61.3330 0.0000 148.0712
v  -31.2672 0.0000 157.1915
v  0.0002 0.0000 160.2711
v  31.2675 0.0000 157.1915
v  61.3333 0.0000 148.0711
v  89.0420 0.0000 133.2604
v  113.3289 0.0000 113.3286
v  133.2607 0.0000 89.0417
v  148.0713 0.0000 61.3329
v  157.1916 0.0000 31.2671
v  160.2711 0.0000 -0.0003
v  157.1915 0.0000 -31.2676
v  148.0711 0.0000 -61.3334
v  133.2604 0.0000 -89.0421
v  113.3286 0.0000 -113.3290
v  89.0416 0.0000 -133.2607
v  61.3328 0.0000 -148.0713
v  31.2670 0.0000 -157.1916
v  0.0000 -54.3806 -0.0000
v  -0.0000 12.3722 -160.2711
v  -31.2673 12.3722 -157.1915
v  -61.3331 12.3722 -148.0712
v  -89.0418 12.3722 -133.2606
v  -113.3288 12.3722 -113.3288
v  -133.2606 12.3722 -89.0418
v  -148.0712 12.3722 -61.3331
v  -157.1915 12.3722 -31.2673
v  -160.2711 12.3722 0.0001
v  -157.1915 12.3722 31.2674
v  -148.0712 12.3722 61.3332
v  -133.2605 12.3722 89.0419
v  -113.3287 12.3722 113.3288
v  -89.0418 12.3722 133.2606
v  -61.3330 12.3722 148.0712
v  -31.2672 12.3722 157.1915
v  0.0002 12.3722 160.2711
v  31.2675 12.3722 157.1915
v  61.3333 12.3722 148.0711
v  89.0420 12.3722 133.2604
v  113.3289 12.3722 113.3286
v  133.2607 12.3722 89.0417
v  148.0713 12.3722 61.3329
v  157.1916 12.3722 31.2671
v  160.2711 12.3722 -0.0003
v  157.1915 12.3722 -31.2676
v  148.0711 12.3722 -61.3334
v  133.2604 12.3722 -89.0421
v  113.3286 12.3722 -113.3290
v  89.0416 12.3722 -133.2607
v  61.3328 12.3722 -148.0713
v  31.2670 12.3722 -157.1916
v  -0.0000 6.8501 -147.2789
v  -28.7327 6.8501 -144.4489
v  -56.3612 6.8501 -136.0679
v  -81.8237 6.8501 -122.4579
v  -104.1419 6.8501 -104.1419
v  -122.4579 6.8501 -81.8237
v  -136.0679 6.8501 -56.3612
v  -144.4489 6.8501 -28.7327
v  -147.2789 6.8501 0.0000
v  -144.4489 6.8501 28.7327
v  -136.0679 6.8501 56.3612
v  -122.4578 6.8501 81.8238
v  -104.1418 6.8501 104.1419
v  -81.8237 6.8501 122.4580
v  -56.3611 6.8501 136.0680
v  -28.7326 6.8501 144.4489
v  0.0001 6.8501 147.2789
v  28.7328 6.8501 144.4489
v  56.3613 6.8501 136.0679
v  81.8239 6.8501 122.4578
v  104.1420 6.8501 104.1417
v  122.4580 6.8501 81.8236
v  136.0680 6.8501 56.3610
v  144.4490 6.8501 28.7324
v  147.2789 6.8501 -0.0002
v  144.4489 6.8501 -28.7329
v  136.0678 6.8501 -56.3614
v  122.4577 6.8501 -81.8240
v  104.1417 6.8501 -104.1421
v  81.8235 6.8501 -122.4581
v  56.3609 6.8501 -136.0680
v  28.7324 6.8501 -144.4490
# 98 vertices

vn -0.0000 1.0000 -0.0000
vn -0.0000 0.8152 -0.5792
vn -0.1130 0.8152 -0.5681
vn -0.0000 1.0000 -0.0000
vn -0.1130 0.8152 -0.5681
vn -0.2217 0.8152 -0.5351
vn -0.0000 1.0000 -0.0000
vn -0.2217 0.8152 -0.5351
vn -0.3218 0.8152 -0.4816
vn -0.0000 1.0000 -0.0000
vn -0.3218 0.8152 -0.4816
vn -0.4096 0.8152 -0.4096
vn -0.0000 1.0000 -0.0000
vn -0.4096 0.8152 -0.4096
vn -0.4816 0.8152 -0.3218
vn -0.0000 1.0000 -0.0000
vn -0.4816 0.8152 -0.3218
vn -0.5351 0.8152 -0.2217
vn -0.0000 1.0000 -0.0000
vn -0.5351 0.8152 -0.2217
vn -0.5681 0.8152 -0.1130
vn -0.0000 1.0000 -0.0000
vn -0.5681 0.8152 -0.1130
vn -0.5792 0.8152 0.0000
vn -0.0000 1.0000 -0.0000
vn -0.5792 0.8152 0.0000
vn -0.5681 0.8152 0.1130
vn -0.0000 1.0000 -0.0000
vn -0.5681 0.8152 0.1130
vn -0.5351 0.8152 0.2217
vn -0.0000 1.0000 -0.0000
vn -0.5351 0.8152 0.2217
vn -0.4816 0.8152 0.3218
vn -0.0000 1.0000 -0.0000
vn -0.4816 0.8152 0.3218
vn -0.4096 0.8152 0.4096
vn -0.0000 1.0000 -0.0000
vn -0.4096 0.8152 0.4096
vn -0.3218 0.8152 0.4816
vn -0.0000 1.0000 -0.0000
vn -0.3218 0.8152 0.4816
vn -0.2217 0.8152 0.5351
vn -0.0000 1.0000 -0.0000
vn -0.2217 0.8152 0.5351
vn -0.1130 0.8152 0.5681
vn -0.0000 1.0000 -0.0000
vn -0.1130 0.8152 0.5681
vn 0.0000 0.8152 0.5792
vn -0.0000 1.0000 -0.0000
vn 0.0000 0.8152 0.5792
vn 0.1130 0.8152 0.5681
vn -0.0000 1.0000 -0.0000
vn 0.1130 0.8152 0.5681
vn 0.2217 0.8152 0.5351
vn -0.0000 1.0000 -0.0000
vn 0.2217 0.8152 0.5351
vn 0.3218 0.8152 0.4816
vn -0.0000 1.0000 -0.0000
vn 0.3218 0.8152 0.4816
vn 0.4096 0.8152 0.4096
vn -0.0000 1.0000 -0.0000
vn 0.4096 0.8152 0.4096
vn 0.4816 0.8152 0.3218
vn -0.0000 1.0000 -0.0000
vn 0.4816 0.8152 0.3218
vn 0.5351 0.8152 0.2217
vn -0.0000 1.0000 -0.0000
vn 0.5351 0.8152 0.2217
vn 0.5681 0.8152 0.1130
vn -0.0000 1.0000 -0.0000
vn 0.5681 0.8152 0.1130
vn 0.5792 0.8152 -0.0000
vn -0.0000 1.0000 -0.0000
vn 0.5792 0.8152 -0.0000
vn 0.5681 0.8152 -0.1130
vn -0.0000 1.0000 -0.0000
vn 0.5681 0.8152 -0.1130
vn 0.5351 0.8152 -0.2217
vn -0.0000 1.0000 -0.0000
vn 0.5351 0.8152 -0.2217
vn 0.4816 0.8152 -0.3218
vn -0.0000 1.0000 -0.0000
vn 0.4816 0.8152 -0.3218
vn 0.4096 0.8152 -0.4096
vn -0.0000 1.0000 -0.0000
vn 0.4096 0.8152 -0.4096
vn 0.3218 0.8152 -0.4816
vn -0.0000 1.0000 -0.0000
vn 0.3218 0.8152 -0.4816
vn 0.2217 0.8152 -0.5351
vn -0.0000 1.0000 -0.0000
vn 0.2217 0.8152 -0.5351
vn 0.1130 0.8152 -0.5681
vn -0.0000 1.0000 -0.0000
vn 0.1130 0.8152 -0.5681
vn -0.0000 0.8152 -0.5792
vn -0.0000 -0.9470 -0.3213
vn -0.0000 -1.0000 0.0000
vn -0.0627 -0.9470 -0.3151
vn -0.0627 -0.9470 -0.3151
vn -0.0000 -1.0000 0.0000
vn -0.1230 -0.9470 -0.2969
vn -0.1230 -0.9470 -0.2969
vn -0.0000 -1.0000 0.0000
vn -0.1785 -0.9470 -0.2672
vn -0.1785 -0.9470 -0.2672
vn -0.0000 -1.0000 0.0000
vn -0.2272 -0.9470 -0.2272
vn -0.2272 -0.9470 -0.2272
vn -0.0000 -1.0000 0.0000
vn -0.2672 -0.9470 -0.1785
vn -0.2672 -0.9470 -0.1785
vn -0.0000 -1.0000 0.0000
vn -0.2969 -0.9470 -0.1230
vn -0.2969 -0.9470 -0.1230
vn -0.0000 -1.0000 0.0000
vn -0.3151 -0.9470 -0.0627
vn -0.3151 -0.9470 -0.0627
vn -0.0000 -1.0000 0.0000
vn -0.3213 -0.9470 0.0000
vn -0.3213 -0.9470 0.0000
vn -0.0000 -1.0000 0.0000
vn -0.3151 -0.9470 0.0627
vn -0.3151 -0.9470 0.0627
vn -0.0000 -1.0000 0.0000
vn -0.2969 -0.9470 0.1230
vn -0.2969 -0.9470 0.1230
vn -0.0000 -1.0000 0.0000
vn -0.2672 -0.9470 0.1785
vn -0.2672 -0.9470 0.1785
vn -0.0000 -1.0000 0.0000
vn -0.2272 -0.9470 0.2272
vn -0.2272 -0.9470 0.2272
vn -0.0000 -1.0000 0.0000
vn -0.1785 -0.9470 0.2672
vn -0.1785 -0.9470 0.2672
vn -0.0000 -1.0000 0.0000
vn -0.1230 -0.9470 0.2969
vn -0.1230 -0.9470 0.2969
vn -0.0000 -1.0000 0.0000
vn -0.0627 -0.9470 0.3151
vn -0.0627 -0.9470 0.3151
vn -0.0000 -1.0000 0.0000
vn 0.0000 -0.9470 0.3213
vn 0.0000 -0.9470 0.3213
vn -0.0000 -1.0000 0.0000
vn 0.0627 -0.9470 0.3151
vn 0.0627 -0.9470 0.3151
vn -0.0000 -1.0000 0.0000
vn 0.1230 -0.9470 0.2969
vn 0.1230 -0.9470 0.2969
vn -0.0000 -1.0000 0.0000
vn 0.1785 -0.9470 0.2672
vn 0.1785 -0.9470 0.2672
vn -0.0000 -1.0000 0.0000
vn 0.2272 -0.9470 0.2272
vn 0.2272 -0.9470 0.2272
vn -0.0000 -1.0000 0.0000
vn 0.2672 -0.9470 0.1785
vn 0.2672 -0.9470 0.1785
vn -0.0000 -1.0000 0.0000
vn 0.2969 -0.9470 0.1230
vn 0.2969 -0.9470 0.1230
vn -0.0000 -1.0000 0.0000
vn 0.3151 -0.9470 0.0627
vn 0.3151 -0.9470 0.0627
vn -0.0000 -1.0000 0.0000
vn 0.3213 -0.9470 -0.0000
vn 0.3213 -0.9470 -0.0000
vn -0.0000 -1.0000 0.0000
vn 0.3151 -0.9470 -0.0627
vn 0.3151 -0.9470 -0.0627
vn -0.0000 -1.0000 0.0000
vn 0.2969 -0.9470 -0.1230
vn 0.2969 -0.9470 -0.1230
vn -0.0000 -1.0000 0.0000
vn 0.2672 -0.9470 -0.1785
vn 0.2672 -0.9470 -0.1785
vn -0.0000 -1.0000 0.0000
vn 0.2272 -0.9470 -0.2272
vn 0.2272 -0.9470 -0.2272
vn -0.0000 -1.0000 0.0000
vn 0.1785 -0.9470 -0.2672
vn 0.1785 -0.9470 -0.2672
vn -0.0000 -1.0000 0.0000
vn 0.1230 -0.9470 -0.2969
vn 0.1230 -0.9470 -0.2969
vn -0.0000 -1.0000 0.0000
vn 0.0627 -0.9470 -0.3151
vn 0.0627 -0.9470 -0.3151
vn -0.0000 -1.0000 0.0000
vn -0.0000 -0.9470 -0.3213
vn -0.0763 -0.9203 -0.3836
vn -0.0000 -0.9203 -0.3912
vn -0.0000 -0.9203 -0.3912
vn -0.0763 -0.9203 -0.3836
vn -0.1497 -0.9203 -0.3614
vn -0.0763 -0.9203 -0.3836
vn -0.0763 -0.9203 -0.3836
vn -0.1497 -0.9203 -0.3614
vn -0.2173 -0.9203 -0.3252
vn -0.1497 -0.9203 -0.3614
vn -0.1497 -0.9203 -0.3614
vn -0.2173 -0.9203 -0.3252
vn -0.2766 -0.9203 -0.2766
vn -0.2173 -0.9203 -0.3252
vn -0.2173 -0.9203 -0.3252
vn -0.2766 -0.9203 -0.2766
vn -0.3252 -0.9203 -0.2173
vn -0.2766 -0.9203 -0.2766
vn -0.2766 -0.9203 -0.2766
vn -0.3252 -0.9203 -0.2173
vn -0.3614 -0.9203 -0.1497
vn -0.3252 -0.9203 -0.2173
vn -0.3252 -0.9203 -0.2173
vn -0.3614 -0.9203 -0.1497
vn -0.3836 -0.9203 -0.0763
vn -0.3614 -0.9203 -0.1497
vn -0.3614 -0.9203 -0.1497
vn -0.3836 -0.9203 -0.0763
vn -0.3912 -0.9203 0.0000
vn -0.3836 -0.9203 -0.0763
vn -0.3836 -0.9203 -0.0763
vn -0.3912 -0.9203 0.0000
vn -0.3836 -0.9203 0.0763
vn -0.3912 -0.9203 0.0000
vn -0.3912 -0.9203 0.0000
vn -0.3836 -0.9203 0.0763
vn -0.3614 -0.9203 0.1497
vn -0.3836 -0.9203 0.0763
vn -0.3836 -0.9203 0.0763
vn -0.3614 -0.9203 0.1497
vn -0.3252 -0.9203 0.2173
vn -0.3614 -0.9203 0.1497
vn -0.3614 -0.9203 0.1497
vn -0.3252 -0.9203 0.2173
vn -0.2766 -0.9203 0.2766
vn -0.3252 -0.9203 0.2173
vn -0.3252 -0.9203 0.2173
vn -0.2766 -0.9203 0.2766
vn -0.2173 -0.9203 0.3252
vn -0.2766 -0.9203 0.2766
vn -0.2766 -0.9203 0.2766
vn -0.2173 -0.9203 0.3252
vn -0.1497 -0.9203 0.3614
vn -0.2173 -0.9203 0.3252
vn -0.2173 -0.9203 0.3252
vn -0.1497 -0.9203 0.3614
vn -0.0763 -0.9203 0.3836
vn -0.1497 -0.9203 0.3614
vn -0.1497 -0.9203 0.3614
vn -0.0763 -0.9203 0.3836
vn 0.0000 -0.9203 0.3912
vn -0.0763 -0.9203 0.3836
vn -0.0763 -0.9203 0.3836
vn 0.0000 -0.9203 0.3912
vn 0.0763 -0.9203 0.3836
vn 0.0000 -0.9203 0.3912
vn 0.0000 -0.9203 0.3912
vn 0.0763 -0.9203 0.3836
vn 0.1497 -0.9203 0.3614
vn 0.0763 -0.9203 0.3836
vn 0.0763 -0.9203 0.3836
vn 0.1497 -0.9203 0.3614
vn 0.2173 -0.9203 0.3252
vn 0.1497 -0.9203 0.3614
vn 0.1497 -0.9203 0.3614
vn 0.2173 -0.9203 0.3252
vn 0.2766 -0.9203 0.2766
vn 0.2173 -0.9203 0.3252
vn 0.2173 -0.9203 0.3252
vn 0.2766 -0.9203 0.2766
vn 0.3252 -0.9203 0.2173
vn 0.2766 -0.9203 0.2766
vn 0.2766 -0.9203 0.2766
vn 0.3252 -0.9203 0.2173
vn 0.3614 -0.9203 0.1497
vn 0.3252 -0.9203 0.2173
vn 0.3252 -0.9203 0.2173
vn 0.3614 -0.9203 0.1497
vn 0.3836 -0.9203 0.0763
vn 0.3614 -0.9203 0.1497
vn 0.3614 -0.9203 0.1497
vn 0.3836 -0.9203 0.0763
vn 0.3912 -0.9203 -0.0000
vn 0.3836 -0.9203 0.0763
vn 0.3836 -0.9203 0.0763
vn 0.3912 -0.9203 -0.0000
vn 0.3836 -0.9203 -0.0763
vn 0.3912 -0.9203 -0.0000
vn 0.3912 -0.9203 -0.0000
vn 0.3836 -0.9203 -0.0763
vn 0.3614 -0.9203 -0.1497
vn 0.3836 -0.9203 -0.0763
vn 0.3836 -0.9203 -0.0763
vn 0.3614 -0.9203 -0.1497
vn 0.3252 -0.9203 -0.2173
vn 0.3614 -0.9203 -0.1497
vn 0.3614 -0.9203 -0.1497
vn 0.3252 -0.9203 -0.2173
vn 0.2766 -0.9203 -0.2766
vn 0.3252 -0.9203 -0.2173
vn 0.3252 -0.9203 -0.2173
vn 0.2766 -0.9203 -0.2766
vn 0.2173 -0.9203 -0.3252
vn 0.2766 -0.9203 -0.2766
vn 0.2766 -0.9203 -0.2766
vn 0.2173 -0.9203 -0.3252
vn 0.1497 -0.9203 -0.3614
vn 0.2173 -0.9203 -0.3252
vn 0.2173 -0.9203 -0.3252
vn 0.1497 -0.9203 -0.3614
vn 0.0763 -0.9203 -0.3836
vn 0.1497 -0.9203 -0.3614
vn 0.1497 -0.9203 -0.3614
vn 0.0763 -0.9203 -0.3836
vn -0.0000 -0.9203 -0.3912
vn 0.0763 -0.9203 -0.3836
vn 0.0763 -0.9203 -0.3836
vn -0.0000 -0.9203 -0.3912
vn -0.3298 0.8846 0.3298
vn -0.2591 0.8846 0.3878
vn -0.2591 0.8846 0.3878
vn -0.3298 0.8846 0.3298
vn -0.2591 0.8846 0.3878
vn -0.1785 0.8846 0.4309
vn -0.1785 0.8846 0.4309
vn -0.2591 0.8846 0.3878
vn -0.1785 0.8846 0.4309
vn -0.0910 0.8846 0.4574
vn -0.0910 0.8846 0.4574
vn -0.1785 0.8846 0.4309
vn -0.0910 0.8846 0.4574
vn 0.0000 0.8846 0.4664
vn 0.0000 0.8846 0.4664
vn -0.0910 0.8846 0.4574
vn 0.0000 0.8846 0.4664
vn 0.0910 0.8846 0.4574
vn 0.0910 0.8846 0.4574
vn 0.0000 0.8846 0.4664
vn 0.0910 0.8846 0.4574
vn 0.1785 0.8846 0.4309
vn 0.1785 0.8846 0.4309
vn 0.0910 0.8846 0.4574
vn 0.1785 0.8846 0.4309
vn 0.2591 0.8846 0.3878
vn 0.2591 0.8846 0.3878
vn 0.1785 0.8846 0.4309
vn 0.2591 0.8846 0.3878
vn 0.3298 0.8846 0.3298
vn 0.3298 0.8846 0.3298
vn 0.2591 0.8846 0.3878
vn 0.3298 0.8846 0.3298
vn 0.3878 0.8846 0.2591
vn 0.3878 0.8846 0.2591
vn 0.3298 0.8846 0.3298
vn 0.3878 0.8846 0.2591
vn 0.4309 0.8846 0.1785
vn 0.4309 0.8846 0.1785
vn 0.3878 0.8846 0.2591
vn 0.4309 0.8846 0.1785
vn 0.4574 0.8846 0.0910
vn 0.4574 0.8846 0.0910
vn 0.4309 0.8846 0.1785
vn 0.4574 0.8846 0.0910
vn 0.4664 0.8846 -0.0000
vn 0.4664 0.8846 -0.0000
vn 0.4574 0.8846 0.0910
vn 0.4664 0.8846 -0.0000
vn 0.4574 0.8846 -0.0910
vn 0.4574 0.8846 -0.0910
vn 0.4664 0.8846 -0.0000
vn 0.4574 0.8846 -0.0910
vn 0.4309 0.8846 -0.1785
vn 0.4309 0.8846 -0.1785
vn 0.4574 0.8846 -0.0910
vn 0.4309 0.8846 -0.1785
vn 0.3878 0.8846 -0.2591
vn 0.3878 0.8846 -0.2591
vn 0.4309 0.8846 -0.1785
vn 0.3878 0.8846 -0.2591
vn 0.3298 0.8846 -0.3298
vn 0.3298 0.8846 -0.3298
vn 0.3878 0.8846 -0.2591
vn 0.3298 0.8846 -0.3298
vn 0.2591 0.8846 -0.3878
vn 0.2591 0.8846 -0.3878
vn 0.3298 0.8846 -0.3298
vn 0.2591 0.8846 -0.3878
vn 0.1785 0.8846 -0.4309
vn 0.1785 0.8846 -0.4309
vn 0.2591 0.8846 -0.3878
vn 0.1785 0.8846 -0.4309
vn 0.0910 0.8846 -0.4574
vn 0.0910 0.8846 -0.4574
vn 0.1785 0.8846 -0.4309
vn 0.0910 0.8846 -0.4574
vn -0.0000 0.8846 -0.4664
vn -0.0000 0.8846 -0.4664
vn 0.0910 0.8846 -0.4574
vn -0.0000 0.8846 -0.4664
vn -0.0910 0.8846 -0.4574
vn -0.0910 0.8846 -0.4574
vn -0.0000 0.8846 -0.4664
vn -0.0910 0.8846 -0.4574
vn -0.1785 0.8846 -0.4309
vn -0.1785 0.8846 -0.4309
vn -0.0910 0.8846 -0.4574
vn -0.1785 0.8846 -0.4309
vn -0.2591 0.8846 -0.3878
vn -0.2591 0.8846 -0.3878
vn -0.1785 0.8846 -0.4309
vn -0.2591 0.8846 -0.3878
vn -0.3298 0.8846 -0.3298
vn -0.3298 0.8846 -0.3298
vn -0.2591 0.8846 -0.3878
vn -0.3298 0.8846 -0.3298
vn -0.3878 0.8846 -0.2591
vn -0.3878 0.8846 -0.2591
vn -0.3298 0.8846 -0.3298
vn -0.3878 0.8846 -0.2591
vn -0.4309 0.8846 -0.1785
vn -0.4309 0.8846 -0.1785
vn -0.3878 0.8846 -0.2591
vn -0.4309 0.8846 -0.1785
vn -0.4574 0.8846 -0.0910
vn -0.4574 0.8846 -0.0910
vn -0.4309 0.8846 -0.1785
vn -0.4574 0.8846 -0.0910
vn -0.4664 0.8846 0.0000
vn -0.4664 0.8846 0.0000
vn -0.4574 0.8846 -0.0910
vn -0.4664 0.8846 0.0000
vn -0.4574 0.8846 0.0910
vn -0.4574 0.8846 0.0910
vn -0.4664 0.8846 0.0000
vn -0.4574 0.8846 0.0910
vn -0.4309 0.8846 0.1785
vn -0.4309 0.8846 0.1785
vn -0.4574 0.8846 0.0910
vn -0.4309 0.8846 0.1785
vn -0.3878 0.8846 0.2591
vn -0.3878 0.8846 0.2591
vn -0.4309 0.8846 0.1785
vn -0.3878 0.8846 0.2591
vn -0.3298 0.8846 0.3298
vn -0.3298 0.8846 0.3298
vn -0.3878 0.8846 0.2591
# 448 vertex normals

vt 0.6903 0.4140 0.0000
vt 0.2553 0.9698 0.0000
vt 0.2553 0.7336 0.0000
vt 0.2092 0.9653 0.0000
vt 0.1649 0.9518 0.0000
vt 0.1241 0.9300 0.0000
vt 0.0883 0.9006 0.0000
vt 0.0589 0.8648 0.0000
vt 0.0371 0.8240 0.0000
vt 0.0237 0.7797 0.0000
vt 0.0191 0.7336 0.0000
vt 0.0237 0.6876 0.0000
vt 0.0371 0.6433 0.0000
vt 0.0589 0.6024 0.0000
vt 0.0883 0.5667 0.0000
vt 0.1241 0.5373 0.0000
vt 0.1649 0.5155 0.0000
vt 0.2092 0.5020 0.0000
vt 0.2553 0.4975 0.0000
vt 0.3013 0.5020 0.0000
vt 0.3456 0.5155 0.0000
vt 0.3865 0.5373 0.0000
vt 0.4223 0.5667 0.0000
vt 0.4516 0.6024 0.0000
vt 0.4734 0.6433 0.0000
vt 0.4869 0.6876 0.0000
vt 0.4914 0.7336 0.0000
vt 0.4869 0.7797 0.0000
vt 0.4734 0.8240 0.0000
vt 0.4516 0.8648 0.0000
vt 0.4223 0.9006 0.0000
vt 0.3865 0.9300 0.0000
vt 0.3456 0.9518 0.0000
vt 0.3013 0.9653 0.0000
vt 0.6903 0.7028 0.0000
vt 0.6340 0.6972 0.0000
vt 0.5798 0.6808 0.0000
vt 0.5299 0.6541 0.0000
vt 0.4861 0.6182 0.0000
vt 0.4502 0.5744 0.0000
vt 0.4235 0.5245 0.0000
vt 0.4071 0.4703 0.0000
vt 0.4015 0.4140 0.0000
vt 0.4071 0.3576 0.0000
vt 0.4235 0.3035 0.0000
vt 0.4502 0.2535 0.0000
vt 0.4861 0.2098 0.0000
vt 0.5299 0.1738 0.0000
vt 0.5798 0.1472 0.0000
vt 0.6340 0.1307 0.0000
vt 0.6903 0.1252 0.0000
vt 0.7466 0.1307 0.0000
vt 0.8008 0.1472 0.0000
vt 0.8508 0.1738 0.0000
vt 0.8945 0.2098 0.0000
vt 0.9304 0.2535 0.0000
vt 0.9571 0.3035 0.0000
vt 0.9736 0.3576 0.0000
vt 0.9791 0.4140 0.0000
vt 0.9736 0.4703 0.0000
vt 0.9571 0.5245 0.0000
vt 0.9304 0.5744 0.0000
vt 0.8945 0.6182 0.0000
vt 0.8508 0.6541 0.0000
vt 0.8008 0.6808 0.0000
vt 0.7466 0.6972 0.0000
vt 0.2912 0.1041 0.5000
vt 0.2608 0.1041 0.5000
vt 0.2608 0.0743 0.4595
vt 0.2912 0.0743 0.4595
vt 0.3217 0.1041 0.5000
vt 0.3217 0.0743 0.4595
vt 0.3522 0.1041 0.5000
vt 0.3522 0.0743 0.4595
vt 0.3827 0.1041 0.5000
vt 0.3827 0.0743 0.4595
vt 0.4131 0.1041 0.5000
vt 0.4131 0.0743 0.4595
vt 0.4436 0.1041 0.5000
vt 0.4436 0.0743 0.4595
vt 0.4741 0.1041 0.5000
vt 0.4741 0.0743 0.4595
vt 0.5045 0.1041 0.5000
vt 0.5045 0.0743 0.4595
vt 0.5350 0.1041 0.5000
vt 0.5350 0.0743 0.4595
vt 0.5655 0.1041 0.5000
vt 0.5655 0.0743 0.4595
vt 0.5959 0.1041 0.5000
vt 0.5959 0.0743 0.4595
vt 0.6264 0.1041 0.5000
vt 0.6264 0.0743 0.4595
vt 0.6569 0.1041 0.5000
vt 0.6569 0.0743 0.4595
vt 0.6873 0.1041 0.5000
vt 0.6873 0.0743 0.4595
vt 0.7178 0.1041 0.5000
vt 0.7178 0.0743 0.4595
vt 0.7483 0.1041 0.5000
vt 0.7483 0.0743 0.4595
vt 0.7787 0.1041 0.5000
vt 0.7787 0.0743 0.4595
vt 0.8092 0.1041 0.5000
vt 0.8092 0.0743 0.4595
vt 0.8397 0.1041 0.5000
vt 0.8397 0.0743 0.4595
vt 0.8702 0.1041 0.5000
vt 0.8702 0.0743 0.4595
vt 0.9006 0.1041 0.5000
vt 0.9006 0.0743 0.4595
vt 0.9311 0.1041 0.5000
vt 0.9311 0.0743 0.4595
vt 0.9616 0.1041 0.5000
vt 0.9616 0.0743 0.4595
vt 0.0170 0.1041 0.5000
vt 0.0170 0.0743 0.4595
vt 0.0475 0.1041 0.5000
vt 0.0475 0.0743 0.4595
vt 0.0780 0.1041 0.5000
vt 0.0780 0.0743 0.4595
vt 0.1084 0.1041 0.5000
vt 0.1084 0.0743 0.4595
vt 0.1389 0.1041 0.5000
vt 0.1389 0.0743 0.4595
vt 0.1694 0.1041 0.5000
vt 0.1694 0.0743 0.4595
vt 0.1998 0.1041 0.5000
vt 0.1998 0.0743 0.4595
vt 0.2303 0.1041 0.5000
vt 0.2303 0.0743 0.4595
vt 0.6264 0.0373 0.5000
vt 0.6569 0.0373 0.5000
vt 0.6873 0.0373 0.5000
vt 0.7178 0.0373 0.5000
vt 0.7483 0.0373 0.5000
vt 0.7787 0.0373 0.5000
vt 0.8092 0.0373 0.5000
vt 0.8397 0.0373 0.5000
vt 0.8702 0.0373 0.5000
vt 0.9006 0.0373 0.5000
vt 0.9311 0.0373 0.5000
vt 0.9616 0.0373 0.5000
vt 0.0170 0.0373 0.5000
vt 0.0475 0.0373 0.5000
vt 0.0780 0.0373 0.5000
vt 0.1084 0.0373 0.5000
vt 0.1389 0.0373 0.5000
vt 0.1694 0.0373 0.5000
vt 0.1998 0.0373 0.5000
vt 0.2303 0.0373 0.5000
vt 0.2608 0.0373 0.5000
vt 0.2912 0.0373 0.5000
vt 0.3217 0.0373 0.5000
vt 0.3522 0.0373 0.5000
vt 0.3827 0.0373 0.5000
vt 0.4131 0.0373 0.5000
vt 0.4436 0.0373 0.5000
vt 0.4741 0.0373 0.5000
vt 0.5045 0.0373 0.5000
vt 0.5350 0.0373 0.5000
vt 0.5655 0.0373 0.5000
vt 0.5959 0.0373 0.5000
vt 0.9920 0.1041 0.5000
vt 0.9920 0.0743 0.4595
vt 0.9920 0.0373 0.5000
vt 0.9920 0.0743 0.4595
# 166 texture coords

g Sphere001
s 1
f 1/1/1 35/35/2 36/36/3 
f 1/1/4 36/36/5 37/37/6 
f 1/1/7 37/37/8 38/38/9 
f 1/1/10 38/38/11 39/39/12 
f 1/1/13 39/39/14 40/40/15 
f 1/1/16 40/40/17 41/41/18 
f 1/1/19 41/41/20 42/42/21 
f 1/1/22 42/42/23 43/43/24 
f 1/1/25 43/43/26 44/44/27 
f 1/1/28 44/44/29 45/45/30 
f 1/1/31 45/45/32 46/46/33 
f 1/1/34 46/46/35 47/47/36 
f 1/1/37 47/47/38 48/48/39 
f 1/1/40 48/48/41 49/49/42 
f 1/1/43 49/49/44 50/50/45 
f 1/1/46 50/50/47 51/51/48 
f 1/1/49 51/51/50 52/52/51 
f 1/1/52 52/52/53 53/53/54 
f 1/1/55 53/53/56 54/54/57 
f 1/1/58 54/54/59 55/55/60 
f 1/1/61 55/55/62 56/56/63 
f 1/1/64 56/56/65 57/57/66 
f 1/1/67 57/57/68 58/58/69 
f 1/1/70 58/58/71 59/59/72 
f 1/1/73 59/59/74 60/60/75 
f 1/1/76 60/60/77 61/61/78 
f 1/1/79 61/61/80 62/62/81 
f 1/1/82 62/62/83 63/63/84 
f 1/1/85 63/63/86 64/64/87 
f 1/1/88 64/64/89 65/65/90 
f 1/1/91 65/65/92 66/66/93 
f 1/1/94 66/66/95 35/35/96 
f 2/2/97 34/3/98 3/4/99 
f 3/4/100 34/3/101 4/5/102 
f 4/5/103 34/3/104 5/6/105 
f 5/6/106 34/3/107 6/7/108 
f 6/7/109 34/3/110 7/8/111 
f 7/8/112 34/3/113 8/9/114 
f 8/9/115 34/3/116 9/10/117 
f 9/10/118 34/3/119 10/11/120 
f 10/11/121 34/3/122 11/12/123 
f 11/12/124 34/3/125 12/13/126 
f 12/13/127 34/3/128 13/14/129 
f 13/14/130 34/3/131 14/15/132 
f 14/15/133 34/3/134 15/16/135 
f 15/16/136 34/3/137 16/17/138 
f 16/17/139 34/3/140 17/18/141 
f 17/18/142 34/3/143 18/19/144 
f 18/19/145 34/3/146 19/20/147 
f 19/20/148 34/3/149 20/21/150 
f 20/21/151 34/3/152 21/22/153 
f 21/22/154 34/3/155 22/23/156 
f 22/23/157 34/3/158 23/24/159 
f 23/24/160 34/3/161 24/25/162 
f 24/25/163 34/3/164 25/26/165 
f 25/26/166 34/3/167 26/27/168 
f 26/27/169 34/3/170 27/28/171 
f 27/28/172 34/3/173 28/29/174 
f 28/29/175 34/3/176 29/30/177 
f 29/30/178 34/3/179 30/31/180 
f 30/31/181 34/3/182 31/32/183 
f 31/32/184 34/3/185 32/33/186 
f 32/33/187 34/3/188 33/34/189 
f 33/34/190 34/3/191 2/2/192 
s 2
f 36/67/193 35/68/194 67/69/195 68/70/196 
f 37/71/197 36/67/198 68/70/199 69/72/200 
f 38/73/201 37/71/202 69/72/203 70/74/204 
f 39/75/205 38/73/206 70/74/207 71/76/208 
f 40/77/209 39/75/210 71/76/211 72/78/212 
f 41/79/213 40/77/214 72/78/215 73/80/216 
f 42/81/217 41/79/218 73/80/219 74/82/220 
f 43/83/221 42/81/222 74/82/223 75/84/224 
f 44/85/225 43/83/226 75/84/227 76/86/228 
f 45/87/229 44/85/230 76/86/231 77/88/232 
f 46/89/233 45/87/234 77/88/235 78/90/236 
f 47/91/237 46/89/238 78/90/239 79/92/240 
f 48/93/241 47/91/242 79/92/243 80/94/244 
f 49/95/245 48/93/246 80/94/247 81/96/248 
f 50/97/249 49/95/250 81/96/251 82/98/252 
f 51/99/253 50/97/254 82/98/255 83/100/256 
f 52/101/257 51/99/258 83/100/259 84/102/260 
f 53/103/261 52/101/262 84/102/263 85/104/264 
f 54/105/265 53/103/266 85/104/267 86/106/268 
f 55/107/269 54/105/270 86/106/271 87/108/272 
f 56/109/273 55/107/274 87/108/275 88/110/276 
f 57/111/277 56/109/278 88/110/279 89/112/280 
f 58/113/281 57/111/282 89/112/283 90/114/284 
f 59/163/285 58/113/286 90/114/287 91/164/288 
f 60/117/289 59/115/290 91/116/291 92/118/292 
f 61/119/293 60/117/294 92/118/295 93/120/296 
f 62/121/297 61/119/298 93/120/299 94/122/300 
f 63/123/301 62/121/302 94/122/303 95/124/304 
f 64/125/305 63/123/306 95/124/307 96/126/308 
f 65/127/309 64/125/310 96/126/311 97/128/312 
f 66/129/313 65/127/314 97/128/315 98/130/316 
f 35/68/317 66/129/318 98/130/319 67/69/320 
s 4
f 14/131/321 15/132/322 80/94/323 79/92/324 
f 15/132/325 16/133/326 81/96/327 80/94/328 
f 16/133/329 17/134/330 82/98/331 81/96/332 
f 17/134/333 18/135/334 83/100/335 82/98/336 
f 18/135/337 19/136/338 84/102/339 83/100/340 
f 19/136/341 20/137/342 85/104/343 84/102/344 
f 20/137/345 21/138/346 86/106/347 85/104/348 
f 21/138/349 22/139/350 87/108/351 86/106/352 
f 22/139/353 23/140/354 88/110/355 87/108/356 
f 23/140/357 24/141/358 89/112/359 88/110/360 
f 24/141/361 25/142/362 90/114/363 89/112/364 
f 25/142/365 26/165/366 91/166/367 90/114/368 
f 26/143/369 27/144/370 92/118/371 91/116/372 
f 27/144/373 28/145/374 93/120/375 92/118/376 
f 28/145/377 29/146/378 94/122/379 93/120/380 
f 29/146/381 30/147/382 95/124/383 94/122/384 
f 30/147/385 31/148/386 96/126/387 95/124/388 
f 31/148/389 32/149/390 97/128/391 96/126/392 
f 32/149/393 33/150/394 98/130/395 97/128/396 
f 33/150/397 2/151/398 67/69/399 98/130/400 
f 2/151/401 3/152/402 68/70/403 67/69/404 
f 3/152/405 4/153/406 69/72/407 68/70/408 
f 4/153/409 5/154/410 70/74/411 69/72/412 
f 5/154/413 6/155/414 71/76/415 70/74/416 
f 6/155/417 7/156/418 72/78/419 71/76/420 
f 7/156/421 8/157/422 73/80/423 72/78/424 
f 8/157/425 9/158/426 74/82/427 73/80/428 
f 9/158/429 10/159/430 75/84/431 74/82/432 
f 10/159/433 11/160/434 76/86/435 75/84/436 
f 11/160/437 12/161/438 77/88/439 76/86/440 
f 12/161/441 13/162/442 78/90/443 77/88/444 
f 13/162/445 14/131/446 79/92/447 78/90/448 
# 64 polygons - 64 triangles

