# 3ds Max Wavefront OBJ Exporter v0.97b - (c)2007 guruware
# File Created: 24.01.2017 01:31:37

#
# object Box012
#

v  -43.7237 166.9359 4.2895
v  35.0164 166.9359 4.2895
v  -39.3701 2.3414 0.0000
v  39.3701 1.4235 0.0000
v  -43.7237 166.9359 -74.4507
v  35.0164 166.9359 -74.4507
v  -39.3701 2.3414 -78.7402
v  39.3701 2.3414 -78.7402
v  40.0523 41.3222 -56.2417
v  36.2641 146.5684 -28.5428
v  38.0300 41.5477 -30.0257
v  39.3701 2.3414 -38.8081
v  40.9030 78.1471 -18.6313
v  33.9321 131.1402 -36.2002
v  39.3701 76.1268 0.2492
v  -0.0000 2.3414 0.0000
v  19.2068 5.1072 -40.5276
v  7.0255 0.3156 -55.8345
v  -9.3421 0.9099 -26.0176
v  -14.7191 3.8704 -62.2833
v  10.9188 2.3414 -77.6784
v  -40.6582 2.3414 -33.9138
v  31.1117 59.8394 -80.5357
v  -1.0956 168.2844 -74.9836
v  -2.2183 110.8985 -74.3439
v  -45.2441 109.5425 -72.4589
v  -45.7117 149.2562 -55.4007
v  -42.1651 166.9359 -53.0371
v  -44.9199 88.1957 5.3034
v  -36.7051 26.8110 0.0000
v  -37.3905 48.5850 -44.8557
v  -45.3477 166.9359 -15.9522
v  8.0275 166.6870 4.2895
v  -25.7982 37.6138 2.0767
v  -26.8332 166.9359 4.2895
v  -7.8534 142.7729 5.8916
v  -8.7411 165.2212 -28.3400
v  10.5918 170.7362 -39.9402
v  -4.8696 64.6447 -76.8331
v  -27.2044 56.5225 1.9755
v  34.6223 81.0816 0.2946
v  -39.0796 74.5701 -60.2473
v  -40.5523 80.1669 -77.1914
v  38.8146 99.2661 -45.2055
v  39.6670 108.2372 -68.9462
v  40.8276 90.0401 -17.7151
v  40.5639 91.3022 -21.4634
v  38.1989 96.0179 -36.9363
v  39.3701 82.9392 0.2434
v  39.3701 111.6868 -78.7402
v  5.5374 98.6249 -78.8568
v  18.9136 104.2157 -79.9827
v  35.2904 110.4295 -79.6272
v  -25.1968 85.9667 -76.7853
v  -14.2149 90.4257 -77.3497
v  0.8510 96.6083 -78.3033
v  -38.3211 70.5282 -48.3350
v  -38.5451 52.6731 0.4832
v  -38.7155 62.1434 -25.7177
v  -31.5581 63.6366 6.2649
v  30.2687 88.1957 4.5841
v  -43.4333 81.6843 -55.9578
v  -44.9060 87.2810 -72.9019
v  34.4609 106.3802 -40.9161
v  35.3134 115.3513 -64.6568
v  36.5257 97.9357 -15.5177
v  36.2102 98.4164 -17.1740
v  36.4740 97.1542 -13.4257
v  33.8452 103.1320 -32.6468
v  35.0164 118.8010 -74.4507
v  1.1837 105.7390 -74.5673
v  14.5599 111.3298 -75.6933
v  30.9367 117.5436 -75.3377
v  -29.5505 93.0808 -72.4958
v  -18.5686 97.5398 -73.0602
v  -3.5027 103.7224 -74.0139
v  -42.6747 77.6423 -44.0455
v  -42.8988 59.7872 4.7726
v  -43.0692 69.2575 -21.4282
v  35.0164 90.0533 4.5328
# 80 vertices

vn 0.0096 0.0443 0.9990
vn 0.0096 0.0443 0.9990
vn 0.0096 0.0443 0.9990
vn 0.0000 1.0000 -0.0000
vn 0.0000 1.0000 -0.0000
vn 0.0000 1.0000 -0.0000
vn 0.1765 -0.9706 0.1634
vn 0.1765 -0.9706 0.1634
vn 0.1765 -0.9706 0.1634
vn -0.9966 -0.0168 0.0811
vn -0.9966 -0.0168 0.0811
vn -0.9966 -0.0168 0.0811
vn -0.9966 -0.0168 0.0811
vn 0.9994 0.0340 0.0008
vn 0.9994 0.0340 0.0008
vn 0.9994 0.0340 0.0008
vn 0.9991 0.0135 0.0410
vn 0.9991 0.0135 0.0410
vn 0.9991 0.0135 0.0410
vn 0.9991 0.0135 0.0410
vn 0.9981 0.0611 -0.0000
vn 0.9981 0.0611 -0.0000
vn 0.9981 0.0611 -0.0000
vn 0.9926 -0.0997 0.0699
vn 0.9926 -0.0997 0.0699
vn 0.9926 -0.0997 0.0699
vn 0.9785 -0.0484 -0.2004
vn 0.9785 -0.0484 -0.2004
vn 0.9785 -0.0484 -0.2004
vn 0.9785 -0.0484 -0.2004
vn 0.9969 0.0169 0.0768
vn 0.9969 0.0169 0.0768
vn 0.9969 0.0169 0.0768
vn 0.9908 -0.1118 -0.0765
vn 0.9908 -0.1118 -0.0765
vn 0.9908 -0.1118 -0.0765
vn 0.9995 0.0133 0.0297
vn 0.9995 0.0133 0.0297
vn 0.9995 0.0133 0.0297
vn 0.9995 0.0133 0.0297
vn 0.9861 -0.0219 -0.1648
vn 0.9808 -0.0165 -0.1942
vn 0.9854 -0.0211 -0.1691
vn 0.9872 -0.0231 -0.1579
vn 0.9967 0.0001 0.0809
vn 0.9967 0.0001 0.0809
vn 0.9967 0.0001 0.0809
vn 0.9967 0.0001 0.0809
vn 0.9990 0.0001 -0.0444
vn 0.9990 0.0001 -0.0444
vn 0.9990 0.0001 -0.0444
vn 0.9998 -0.0175 0.0000
vn 0.9998 -0.0175 0.0000
vn 0.9998 -0.0175 0.0000
vn 0.9970 0.0067 0.0769
vn 0.9970 0.0067 0.0769
vn 0.9970 0.0067 0.0769
vn 0.9970 0.0067 0.0769
vn 0.9995 0.0000 -0.0303
vn 0.9995 0.0000 -0.0303
vn 0.9995 0.0000 -0.0303
vn 0.9995 0.0000 -0.0303
vn -0.0233 -0.9994 -0.0236
vn -0.0233 -0.9994 -0.0236
vn -0.0233 -0.9994 -0.0236
vn -0.1272 -0.9853 -0.1141
vn -0.1272 -0.9853 -0.1141
vn -0.1272 -0.9853 -0.1141
vn -0.1243 -0.9842 -0.1261
vn -0.1243 -0.9842 -0.1261
vn -0.1243 -0.9842 -0.1261
vn -0.1359 -0.9907 0.0000
vn -0.1359 -0.9907 0.0000
vn -0.1359 -0.9907 0.0000
vn -0.0260 -0.9967 -0.0775
vn -0.0260 -0.9967 -0.0775
vn -0.0260 -0.9967 -0.0775
vn -0.0020 -0.9954 0.0955
vn -0.0020 -0.9954 0.0955
vn -0.0020 -0.9954 0.0955
vn -0.0035 -0.9957 -0.0930
vn -0.0035 -0.9957 -0.0930
vn -0.0035 -0.9957 -0.0930
vn 0.0972 -0.9907 -0.0953
vn 0.0972 -0.9907 -0.0953
vn 0.0972 -0.9907 -0.0953
vn -0.2787 -0.8307 0.4819
vn -0.2787 -0.8307 0.4819
vn -0.2787 -0.8307 0.4819
vn 0.1464 -0.9892 0.0019
vn 0.1464 -0.9892 0.0019
vn 0.1464 -0.9892 0.0019
vn 0.0000 -1.0000 0.0000
vn 0.0000 -1.0000 0.0000
vn 0.0000 -1.0000 0.0000
vn 0.0607 -0.9982 0.0017
vn 0.0607 -0.9982 0.0017
vn 0.0607 -0.9982 0.0017
vn -0.0652 -0.9948 0.0781
vn -0.0652 -0.9948 0.0781
vn -0.0652 -0.9948 0.0781
vn -0.0373 -0.0365 -0.9986
vn -0.0373 -0.0365 -0.9986
vn -0.0373 -0.0365 -0.9986
vn -0.0799 -0.0095 -0.9968
vn -0.0799 -0.0095 -0.9968
vn -0.0799 -0.0095 -0.9968
vn 0.0154 0.0167 -0.9997
vn 0.0154 0.0167 -0.9997
vn 0.0154 0.0167 -0.9997
vn 0.2125 0.0000 -0.9772
vn 0.2125 0.0000 -0.9772
vn 0.2125 0.0000 -0.9772
vn 0.2125 0.0000 -0.9772
vn -0.0122 -0.0109 -0.9999
vn -0.0122 -0.0109 -0.9999
vn -0.0122 -0.0109 -0.9999
vn -0.0377 -0.0337 -0.9987
vn -0.0377 -0.0337 -0.9987
vn -0.0377 -0.0337 -0.9987
vn 0.0211 -0.0570 -0.9982
vn 0.0211 -0.0570 -0.9982
vn 0.0211 -0.0570 -0.9982
vn -0.0479 -0.0373 -0.9982
vn -0.0479 -0.0373 -0.9982
vn -0.0479 -0.0373 -0.9982
vn -0.0479 -0.0373 -0.9982
vn -0.0913 0.0809 -0.9925
vn -0.0913 0.0809 -0.9925
vn -0.0913 0.0809 -0.9925
vn 0.0188 0.0202 -0.9996
vn 0.0188 0.0202 -0.9996
vn 0.0188 0.0202 -0.9996
vn 0.0188 0.0202 -0.9996
vn -0.9963 0.0235 -0.0821
vn -0.9963 0.0235 -0.0821
vn -0.9963 0.0235 -0.0821
vn -0.9959 -0.0285 -0.0855
vn -0.9959 -0.0285 -0.0855
vn -0.9959 -0.0285 -0.0855
vn -0.9949 0.0835 0.0557
vn -0.9949 0.0835 0.0557
vn -0.9949 0.0835 0.0557
vn -0.9981 -0.0341 0.0520
vn -0.9981 -0.0341 0.0520
vn -0.9981 -0.0341 0.0520
vn -0.9981 -0.0341 0.0520
vn -0.9976 0.0637 -0.0287
vn -0.9976 0.0637 -0.0287
vn -0.9976 0.0637 -0.0287
vn -0.9934 0.1082 0.0377
vn -0.9934 0.1082 0.0377
vn -0.9934 0.1082 0.0377
vn -0.9973 -0.0706 -0.0190
vn -0.9973 -0.0706 -0.0190
vn -0.9973 -0.0706 -0.0190
vn -0.9973 -0.0706 -0.0190
vn -0.9683 0.1697 0.1834
vn -0.9683 0.1697 0.1834
vn -0.9683 0.1697 0.1834
vn -0.9798 0.1870 0.0713
vn -0.9798 0.1870 0.0713
vn -0.9798 0.1870 0.0713
vn -0.9982 -0.0479 -0.0352
vn -0.9982 -0.0479 -0.0352
vn -0.9982 -0.0479 -0.0352
vn -0.9982 -0.0479 -0.0352
vn -0.9967 0.0162 0.0800
vn -0.9967 0.0162 0.0800
vn -0.9967 0.0162 0.0800
vn 0.0000 0.0129 0.9999
vn 0.0000 0.0129 0.9999
vn 0.0000 0.0129 0.9999
vn 0.0000 -0.0000 1.0000
vn 0.0000 -0.0000 1.0000
vn 0.0000 -0.0000 1.0000
vn -0.1385 -0.0215 0.9901
vn -0.1213 -0.0272 0.9922
vn -0.1538 -0.0165 0.9880
vn -0.1793 -0.0081 0.9838
vn -0.0759 -0.1138 0.9906
vn -0.0759 -0.1138 0.9906
vn -0.0759 -0.1138 0.9906
vn -0.0001 -0.0033 1.0000
vn -0.0001 -0.0033 1.0000
vn -0.0001 -0.0033 1.0000
vn 0.0105 0.0009 0.9999
vn 0.0105 0.0009 0.9999
vn 0.0105 0.0009 0.9999
vn -0.0525 0.0249 0.9983
vn -0.0525 0.0249 0.9983
vn -0.0525 0.0249 0.9983
vn 0.0438 -0.0268 0.9987
vn 0.0438 -0.0268 0.9987
vn 0.0438 -0.0268 0.9987
vn 0.0005 0.0665 0.9978
vn 0.0005 0.0665 0.9978
vn 0.0005 0.0665 0.9978
vn 0.0362 0.9968 0.0714
vn 0.0362 0.9968 0.0714
vn 0.0362 0.9968 0.0714
vn -0.2315 0.9699 0.0754
vn -0.2315 0.9699 0.0754
vn -0.2315 0.9699 0.0754
vn -0.0308 0.9977 0.0605
vn -0.0308 0.9977 0.0605
vn -0.0308 0.9977 0.0605
vn 0.0482 0.9988 0.0041
vn 0.0482 0.9988 0.0041
vn 0.0482 0.9988 0.0041
vn 0.0071 0.9988 -0.0485
vn 0.0071 0.9988 -0.0485
vn 0.0071 0.9988 -0.0485
vn 0.1537 0.9881 -0.0000
vn 0.1537 0.9881 -0.0000
vn 0.1537 0.9881 -0.0000
vn -0.4730 0.7745 -0.4200
vn -0.4730 0.7745 -0.4200
vn -0.4730 0.7745 -0.4200
vn 0.0357 0.9988 -0.0327
vn 0.0357 0.9988 -0.0327
vn 0.0357 0.9988 -0.0327
vn -0.0092 0.9958 0.0906
vn -0.0092 0.9958 0.0906
vn -0.0092 0.9958 0.0906
vn -0.1059 -0.0268 -0.9940
vn -0.1059 -0.0268 -0.9940
vn -0.1059 -0.0268 -0.9940
vn 0.0226 0.0113 0.9997
vn 0.0223 0.0122 0.9997
vn 0.0238 0.0074 0.9997
vn 0.0238 0.0071 0.9997
vn -0.9966 -0.0168 0.0811
vn -0.9966 -0.0168 0.0811
vn -0.9966 -0.0168 0.0811
vn 0.9991 0.0135 0.0410
vn 0.9991 0.0135 0.0410
vn 0.9991 0.0135 0.0410
vn 0.9977 0.0114 -0.0664
vn 0.9977 0.0114 -0.0664
vn 0.9977 0.0114 -0.0664
vn 0.9872 -0.0231 -0.1579
vn 0.9872 -0.0231 -0.1579
vn 0.9872 -0.0231 -0.1579
vn 0.9967 0.0003 0.0810
vn 0.9967 0.0003 0.0810
vn 0.9396 0.0070 0.3422
vn 0.9970 0.0067 0.0769
vn 0.9970 0.0067 0.0769
vn 0.9970 0.0067 0.0769
vn 0.9995 -0.0000 -0.0303
vn 0.9995 -0.0000 -0.0303
vn 0.9995 -0.0000 -0.0303
vn -0.0799 -0.0095 -0.9968
vn -0.0799 -0.0095 -0.9968
vn -0.0799 -0.0095 -0.9968
vn -0.0799 -0.0095 -0.9968
vn 0.0154 0.0167 -0.9997
vn 0.0154 0.0167 -0.9997
vn 0.0154 0.0167 -0.9997
vn 0.0154 0.0167 -0.9997
vn 0.2125 -0.0000 -0.9772
vn 0.2125 -0.0000 -0.9772
vn 0.2125 -0.0000 -0.9772
vn -0.0377 -0.0337 -0.9987
vn -0.0377 -0.0337 -0.9987
vn -0.0377 -0.0337 -0.9987
vn -0.0377 -0.0337 -0.9987
vn -0.0479 -0.0373 -0.9982
vn -0.0479 -0.0373 -0.9982
vn -0.0479 -0.0373 -0.9982
vn 0.0188 0.0202 -0.9996
vn 0.0188 0.0202 -0.9996
vn 0.0188 0.0202 -0.9996
vn -0.9981 -0.0341 0.0520
vn -0.9981 -0.0341 0.0520
vn -0.9981 -0.0341 0.0520
vn -0.9973 -0.0706 -0.0190
vn -0.9973 -0.0706 -0.0190
vn -0.9973 -0.0706 -0.0190
vn -0.9982 -0.0479 -0.0352
vn -0.9982 -0.0479 -0.0352
vn -0.9982 -0.0479 -0.0352
vn -0.0000 0.0032 1.0000
vn -0.0000 0.0032 1.0000
vn -0.0000 0.0032 1.0000
vn -0.1213 -0.0272 0.9922
vn -0.1213 -0.0272 0.9922
vn -0.1213 -0.0272 0.9922
vn 0.0137 -0.0144 0.9998
vn 0.0158 -0.0129 0.9998
vn 0.0099 -0.0170 0.9998
vn 0.0096 -0.0173 0.9998
vn 0.0627 0.0252 0.9977
vn 0.0627 0.0252 0.9977
vn 0.9396 0.0070 0.3422
vn -0.1059 -0.0268 -0.9940
vn -0.1059 -0.0268 -0.9940
vn -0.1059 -0.0268 -0.9940
vn -0.1059 -0.0268 -0.9940
vn -0.3420 0.8830 0.3214
vn -0.3420 0.8830 0.3214
vn -0.3420 0.8830 0.3214
vn -0.3420 0.8830 0.3214
vn -0.3420 0.8830 0.3214
vn -0.3420 0.8830 0.3214
vn -0.3420 0.8830 0.3214
vn -0.3420 0.8830 0.3214
vn -0.3420 0.8830 0.3214
vn -0.3420 0.8830 0.3214
vn -0.3420 0.8830 0.3214
vn -0.3420 0.8830 0.3214
vn -0.3420 0.8830 0.3214
vn -0.3420 0.8830 0.3214
vn -0.3420 0.8830 0.3214
vn -0.3420 0.8830 0.3214
vn -0.3420 0.8830 0.3214
vn -0.3420 0.8830 0.3214
vn -0.3420 0.8830 0.3214
vn -0.3420 0.8830 0.3214
vn -0.3420 0.8830 0.3214
vn -0.3420 0.8830 0.3214
vn -0.3420 0.8830 0.3214
vn -0.3420 0.8830 0.3214
vn -0.3420 0.8830 0.3214
vn -0.3420 0.8830 0.3214
vn -0.3420 0.8830 0.3214
vn -0.3420 0.8830 0.3214
vn -0.3420 0.8830 0.3214
vn -0.3420 0.8830 0.3214
vn -0.3420 0.8830 0.3214
vn -0.3420 0.8830 0.3214
vn -0.3420 0.8830 0.3214
vn -0.3420 0.8830 0.3214
vn -0.3420 0.8830 0.3214
vn -0.3420 0.8830 0.3214
vn -0.3420 0.8830 0.3214
vn -0.3420 0.8830 0.3214
vn -0.3420 0.8830 0.3214
vn -0.3420 0.8830 0.3214
vn 0.3420 -0.8830 -0.3214
vn 0.3420 -0.8830 -0.3214
vn 0.3420 -0.8830 -0.3214
vn 0.3420 -0.8830 -0.3214
vn 0.3420 -0.8830 -0.3214
vn 0.3420 -0.8830 -0.3214
vn 0.3420 -0.8830 -0.3214
vn 0.3420 -0.8830 -0.3214
vn 0.3420 -0.8830 -0.3214
vn 0.3420 -0.8830 -0.3214
vn 0.3420 -0.8830 -0.3214
vn 0.3420 -0.8830 -0.3214
vn 0.3420 -0.8830 -0.3214
vn 0.3420 -0.8830 -0.3214
vn 0.3420 -0.8830 -0.3214
vn 0.3420 -0.8830 -0.3214
vn 0.3420 -0.8830 -0.3214
vn 0.3420 -0.8830 -0.3214
vn 0.3420 -0.8830 -0.3214
vn 0.3420 -0.8830 -0.3214
vn 0.3420 -0.8830 -0.3214
vn 0.3420 -0.8830 -0.3214
vn 0.3420 -0.8830 -0.3214
vn 0.3421 -0.8830 -0.3214
vn 0.3420 -0.8830 -0.3214
vn 0.3420 -0.8830 -0.3214
vn 0.3420 -0.8830 -0.3214
vn 0.3420 -0.8830 -0.3214
vn 0.3420 -0.8830 -0.3214
vn 0.3420 -0.8830 -0.3214
vn 0.3420 -0.8830 -0.3214
vn 0.3420 -0.8830 -0.3214
vn 0.3420 -0.8830 -0.3214
vn 0.3420 -0.8830 -0.3214
vn 0.3420 -0.8830 -0.3214
vn 0.3420 -0.8830 -0.3214
vn 0.3420 -0.8830 -0.3214
vn 0.3420 -0.8830 -0.3214
vn 0.3420 -0.8830 -0.3214
vn 0.3420 -0.8830 -0.3214
vn 0.3420 -0.8830 -0.3214
vn 0.0541 0.9985 -0.0039
vn 0.0541 0.9985 -0.0039
vn 0.0541 0.9985 -0.0039
# 384 vertex normals

vt 0.8157 0.1966 0.0000
vt 0.6523 0.1949 0.0000
vt 0.7091 0.8098 0.0000
vt 0.5466 0.8132 0.0000
vt 0.3285 0.1981 0.0000
vt 0.4894 0.1990 0.0000
vt 0.2199 0.8150 0.0000
vt 0.3841 0.8136 0.0000
vt 0.3327 0.0331 0.0000
vt 0.4941 0.0360 0.0000
vt 0.3846 0.9762 0.0000
vt 0.2225 0.9778 0.0000
vt 0.0570 0.8142 0.0000
vt 0.1651 0.1991 0.0000
vt 0.4293 0.7325 0.0000
vt 0.5852 0.2379 0.0000
vt 0.4836 0.7312 0.0000
vt 0.4665 0.8124 0.0000
vt 0.3842 0.8961 0.0000
vt 0.5059 0.6381 0.0000
vt 0.5700 0.2702 0.0000
vt 0.5451 0.6488 0.0000
vt 0.6279 0.8105 0.0000
vt 0.3035 0.9764 0.0000
vt 0.3421 0.8923 0.0000
vt 0.3171 0.8599 0.0000
vt 0.2833 0.9232 0.0000
vt 0.2716 0.8482 0.0000
vt 0.3245 0.8149 0.0000
vt 0.2187 0.9079 0.0000
vt 0.1271 0.8149 0.0000
vt 0.3648 0.6954 0.0000
vt 0.4159 0.1977 0.0000
vt 0.4134 0.3151 0.0000
vt 0.3243 0.3165 0.0000
vt 0.2892 0.2348 0.0000
vt 0.3262 0.1525 0.0000
vt 0.2838 0.1979 0.0000
vt 0.8158 0.3587 0.0000
vt 0.1650 0.3613 0.0000
vt 0.7032 0.7594 0.0000
vt 0.0572 0.7633 0.0000
vt 0.1502 0.7194 0.0000
vt 0.3277 0.0746 0.0000
vt 0.2070 0.1986 0.0000
vt 0.7087 0.1957 0.0000
vt 0.4379 0.0355 0.0000
vt 0.6801 0.7035 0.0000
vt 0.7807 0.1960 0.0000
vt 0.3668 0.0343 0.0000
vt 0.7407 0.2451 0.0000
vt 0.4019 0.1023 0.0000
vt 0.4430 0.1263 0.0000
vt 0.2903 0.6860 0.0000
vt 0.6829 0.6982 0.0000
vt 0.5549 0.6487 0.0000
vt 0.1822 0.6659 0.0000
vt 0.2170 0.6544 0.0000
vt 0.4501 0.6125 0.0000
vt 0.4007 0.5949 0.0000
vt 0.5034 0.6291 0.0000
vt 0.4999 0.6281 0.0000
vt 0.4674 0.6190 0.0000
vt 0.5451 0.6450 0.0000
vt 0.3803 0.5881 0.0000
vt 0.3112 0.6158 0.0000
vt 0.3387 0.6040 0.0000
vt 0.3721 0.5909 0.0000
vt 0.2482 0.6423 0.0000
vt 0.2707 0.6330 0.0000
vt 0.3017 0.6199 0.0000
vt 0.1577 0.6742 0.0000
vt 0.0569 0.7098 0.0000
vt 0.7066 0.7060 0.0000
vt 0.1110 0.6909 0.0000
vt 0.7876 0.4090 0.0000
vt 0.6610 0.3566 0.0000
vt 0.2902 0.3737 0.0000
vt 0.3248 0.3624 0.0000
vt 0.5617 0.3215 0.0000
vt 0.5128 0.3045 0.0000
vt 0.6130 0.3375 0.0000
vt 0.6104 0.3368 0.0000
vt 0.6162 0.3386 0.0000
vt 0.5785 0.3277 0.0000
vt 0.4926 0.2981 0.0000
vt 0.4207 0.3259 0.0000
vt 0.4492 0.3146 0.0000
vt 0.4837 0.3010 0.0000
vt 0.3563 0.3507 0.0000
vt 0.3789 0.3417 0.0000
vt 0.4106 0.3298 0.0000
vt 0.2669 0.3824 0.0000
vt 0.1666 0.4200 0.0000
vt 0.8111 0.4172 0.0000
vt 0.2205 0.4002 0.0000
vt 0.6538 0.3539 0.0000
vt 0.8188 0.5700 0.0000
vt 0.6912 0.5192 0.0000
vt 0.3198 0.5327 0.0000
vt 0.3561 0.5211 0.0000
vt 0.5881 0.4816 0.0000
vt 0.5390 0.4631 0.0000
vt 0.6406 0.4991 0.0000
vt 0.6371 0.4981 0.0000
vt 0.6449 0.5007 0.0000
vt 0.6052 0.4883 0.0000
vt 0.5188 0.4560 0.0000
vt 0.4489 0.4830 0.0000
vt 0.4765 0.4726 0.0000
vt 0.5103 0.4586 0.0000
vt 0.3871 0.5091 0.0000
vt 0.4080 0.4999 0.0000
vt 0.4392 0.4871 0.0000
vt 0.2932 0.5410 0.0000
vt 0.8442 0.5779 0.0000
vt 0.2474 0.5584 0.0000
vt 0.6838 0.5163 0.0000
vt 0.7981 0.4361 0.0000
vt 0.6704 0.3854 0.0000
vt 0.2991 0.3988 0.0000
vt 0.3353 0.3873 0.0000
vt 0.5674 0.3478 0.0000
vt 0.5183 0.3292 0.0000
vt 0.6198 0.3652 0.0000
vt 0.6164 0.3642 0.0000
vt 0.5845 0.3545 0.0000
vt 0.6608 0.3815 0.0000
vt 0.4981 0.3221 0.0000
vt 0.4281 0.3491 0.0000
vt 0.4558 0.3388 0.0000
vt 0.4896 0.3247 0.0000
vt 0.3664 0.3753 0.0000
vt 0.3873 0.3661 0.0000
vt 0.4185 0.3533 0.0000
vt 0.2725 0.4072 0.0000
vt 0.1726 0.4441 0.0000
vt 0.2266 0.4245 0.0000
# 138 texture coords

g Box012
s 1
f 29/39/1 60/76/2 61/77/3 
f 1/9/4 35/50/5 32/44/6 
f 17/25/7 18/26/8 8/8/9 
f 7/7/10 31/43/11 42/57/12 43/58/13 
f 11/17/14 4/4/15 12/18/16 
f 6/6/17 14/21/18 64/80/19 65/81/20 
s 2
f 10/16/21 6/6/22 2/2/23 
f 11/17/24 13/20/25 15/22/26 
s 4
f 14/21/27 10/16/28 66/82/29 67/83/30 
f 11/17/31 12/18/32 9/15/33 
s 8
f 14/21/34 6/6/35 10/16/36 
s 1
f 66/82/37 10/16/38 2/2/39 68/84/40 
s 8
f 47/62/41 13/20/42 11/17/43 48/63/44 
s 1
f 46/61/45 49/64/46 15/22/47 13/20/48 
s 16
f 15/22/49 4/4/50 11/17/51 
s 2
f 12/18/52 8/8/53 9/15/54 
s 32
f 44/59/55 48/63/56 11/17/57 9/15/58 
s 8
f 45/60/59 9/15/60 8/8/61 50/65/62 
f 12/19/63 4/11/64 16/24/65 
s 2
f 20/28/66 21/29/67 18/26/68 
s 16
f 12/19/69 16/24/70 17/25/71 
s 32
f 17/25/72 8/8/73 12/19/74 
s 1
f 22/30/75 20/28/76 19/27/77 
s 4
f 20/28/78 7/7/79 21/29/80 
s 16
f 21/29/81 8/8/82 18/26/83 
s 8
f 17/25/84 19/27/85 20/28/86 
s 64
f 20/28/87 18/26/88 17/25/89 
s 2
f 19/27/90 17/25/91 16/24/92 
s 4
f 16/24/93 3/12/94 22/30/95 
s 16
f 22/30/96 7/7/97 20/28/98 
s 32
f 19/27/99 16/24/100 22/30/101 
s 64
f 8/8/102 21/29/103 23/32/104 
s 1
f 23/32/105 51/66/106 52/67/107 
s 2
f 23/32/108 52/67/109 53/68/110 
s 4
f 50/65/111 8/8/112 23/32/113 53/68/114 
s 1
f 5/5/115 24/33/116 25/34/117 
f 39/54/118 54/69/119 55/70/120 
s 8
f 23/32/121 21/29/122 7/7/123 
s 2
f 75/91/124 5/5/125 25/34/126 76/92/127 
s 32
f 23/32/128 7/7/129 39/54/130 
s 2
f 43/58/131 54/69/132 39/54/133 7/7/134 
s 4
f 27/36/135 5/5/136 26/35/137 
s 2
f 29/40/138 32/45/139 28/38/140 
f 22/31/141 30/42/142 31/43/143 
s 1
f 62/78/144 77/93/145 27/36/146 26/35/147 
s 64
f 31/43/148 7/7/149 22/31/150 
s 8
f 22/31/151 3/13/152 30/42/153 
s 4
f 31/43/154 30/42/155 58/73/156 59/75/157 
s 8
f 29/40/158 28/38/159 27/36/160 
s 16
f 27/36/161 28/38/162 5/5/163 
s 32
f 77/93/164 79/96/165 29/40/166 27/36/167 
s 4
f 29/40/168 1/14/169 32/45/170 
s 16
f 35/49/171 1/1/172 29/39/173 
s 1
f 30/41/174 3/3/175 16/23/176 
s 16
f 40/55/177 58/74/178 30/41/179 34/48/180 
s 64
f 30/41/181 16/23/182 34/48/183 
s 128
f 16/23/184 4/4/185 15/22/186 
s 8
f 15/22/187 49/64/188 41/56/189 
s 64
f 29/39/190 36/51/191 35/49/192 
s 256
f 15/22/193 34/48/194 16/23/195 
s 2
f 36/51/196 33/46/197 35/49/198 
s 4
f 6/6/199 24/33/200 37/52/201 
s 1
f 33/47/202 38/53/203 37/52/204 
s 8
f 24/33/205 5/5/206 37/52/207 
s 32
f 37/52/208 28/37/209 32/44/210 
s 128
f 37/52/211 35/50/212 33/47/213 
s 16
f 2/10/214 6/6/215 38/53/216 
s 64
f 38/53/217 6/6/218 37/52/219 
s 256
f 37/52/220 32/44/221 35/50/222 
s 4
f 38/53/223 33/47/224 2/10/225 
f 25/34/226 71/87/227 76/92/228 
s 32
f 15/22/229 41/56/230 40/55/231 34/48/232 
s 2
f 62/78/233 26/35/234 63/79/235 
s 1
f 44/59/236 9/15/237 45/60/238 
s 4
f 46/61/239 13/20/240 47/62/241 
s 2
f 69/85/242 14/21/243 67/83/244 
s 8
f 68/84/245 2/2/246 80/97/247 
s 16
f 64/80/248 14/21/249 69/85/250 
s 32
f 70/86/251 6/6/252 65/81/253 
s 16
f 24/33/254 72/88/255 71/87/256 25/34/257 
s 128
f 72/88/258 24/33/259 6/6/260 73/89/261 
s 256
f 73/89/262 6/6/263 70/86/264 
s 32
f 5/5/265 75/91/266 74/90/267 26/35/268 
s 4
f 56/71/269 39/54/270 55/70/271 
s 8
f 63/79/272 26/35/273 74/90/274 
f 42/57/275 31/43/276 57/72/277 
s 128
f 78/94/278 29/40/279 79/96/280 
s 16
f 57/72/281 31/43/282 59/75/283 
s 32
f 2/2/284 33/46/285 80/97/286 
s 256
f 60/76/287 29/39/288 78/95/289 
s 512
f 61/77/290 80/97/291 36/51/292 29/39/293 
s 8
f 33/46/294 36/51/295 80/97/296 
s 16
f 51/66/297 23/32/298 39/54/299 56/71/300 
s 64
f 41/120/301 49/128/302 46/125/303 48/127/304 
f 46/125/305 47/126/306 48/127/307 
f 48/127/308 44/123/309 45/124/310 53/132/311 
f 45/124/312 50/129/313 53/132/314 
f 53/132/315 52/131/316 51/130/317 56/135/318 
f 48/127/319 53/132/320 56/135/321 42/121/322 
f 54/133/323 43/122/324 42/121/325 55/134/326 
f 56/135/327 55/134/328 42/121/329 
f 41/120/330 48/127/331 42/121/332 57/136/333 
f 41/120/334 57/136/335 59/138/336 40/119/337 
f 59/138/338 58/137/339 40/119/340 
f 78/116/341 79/117/342 77/115/343 61/99/344 
f 62/100/345 63/101/346 74/112/347 77/115/348 
f 76/114/349 71/109/350 72/110/351 70/108/352 
f 72/110/353 73/111/354 70/108/355 
f 75/113/356 76/114/357 70/108/358 69/107/359 
f 70/108/360 65/103/361 64/102/362 69/107/363 
f 67/105/364 66/104/365 68/106/366 69/107/367 
f 68/106/368 80/118/369 61/99/370 69/107/371 
f 75/113/372 69/107/373 61/99/374 74/112/375 
f 77/115/376 74/112/377 61/99/378 
f 60/98/379 78/116/380 61/99/381 
s 512
f 37/52/382 5/5/383 28/37/384 
# 36 polygons - 80 triangles

