# 3ds Max Wavefront OBJ Exporter v0.97b - (c)2007 guruware
# File Created: 28.01.2017 03:04:03

#
# object Box024
#

v  -39.3701 0.0000 39.3701
v  39.3701 0.0000 39.3701
v  -39.3701 0.0000 -39.3701
v  39.3701 0.0000 -39.3701
v  -39.3701 314.9606 39.3701
v  39.3701 314.9606 39.3701
v  -39.3701 314.9606 -39.3701
v  39.3701 314.9606 -39.3701
v  -20.9035 314.9606 39.3701
v  2.5550 261.6743 39.3701
v  -20.9722 145.8414 39.3701
v  39.3701 29.3932 39.3701
v  15.9665 0.0000 41.6359
v  37.9816 286.2618 41.7697
v  41.0742 178.4432 39.3701
v  27.1995 105.7989 36.4144
v  -12.2143 79.6265 43.6183
v  18.5508 320.7178 15.1165
v  -16.2253 310.6075 -2.3384
v  -0.4062 311.6094 -39.3701
v  41.3204 317.3926 -19.3918
v  -37.7846 311.3570 12.2217
v  39.3701 314.9606 2.0601
v  37.0340 217.0674 -9.1394
v  41.6265 253.7233 -39.3701
v  43.3403 109.9280 -19.7236
v  -33.4873 249.0171 23.3185
v  -41.6206 221.0928 -1.0786
v  -43.9378 173.6470 18.7767
v  -2.3362 219.7905 -35.1447
v  -7.9840 47.7511 -43.5237
v  6.6877 -2.5945 -1.1205
v  24.3679 3.7382 -19.7565
v  43.0953 40.2819 30.3680
# 34 vertices

vn 0.0057 -0.9982 0.0593
vn 0.0057 -0.9982 0.0593
vn 0.0057 -0.9982 0.0593
vn -0.2184 0.9678 -0.1255
vn -0.2184 0.9678 -0.1255
vn -0.2184 0.9678 -0.1255
vn 0.9959 -0.0228 0.0880
vn 0.9959 -0.0228 0.0880
vn 0.9959 -0.0228 0.0880
vn -0.0039 -0.0459 -0.9989
vn -0.0039 -0.0459 -0.9989
vn -0.0039 -0.0459 -0.9989
vn -0.0518 -0.0228 0.9984
vn -0.0518 -0.0228 0.9984
vn -0.0518 -0.0228 0.9984
vn 0.0964 0.0000 0.9953
vn 0.0964 0.0000 0.9953
vn 0.0964 0.0000 0.9953
vn 0.1634 0.0847 0.9829
vn 0.1634 0.0847 0.9829
vn 0.1634 0.0847 0.9829
vn -0.0512 -0.0237 0.9984
vn -0.0512 -0.0237 0.9984
vn -0.0512 -0.0237 0.9984
vn 0.0000 0.0833 0.9965
vn 0.0000 0.0833 0.9965
vn 0.0000 0.0833 0.9965
vn -0.2210 0.0025 0.9753
vn -0.2210 0.0025 0.9753
vn -0.2210 0.0025 0.9753
vn 0.1070 0.0554 0.9927
vn 0.1070 0.0554 0.9927
vn 0.1070 0.0554 0.9927
vn 0.0000 0.0000 1.0000
vn 0.0000 0.0000 1.0000
vn 0.0000 0.0000 1.0000
vn 0.0000 0.0000 1.0000
vn 0.0000 0.0000 1.0000
vn 0.0000 0.0000 1.0000
vn 0.0000 0.0000 1.0000
vn 0.0000 0.0000 1.0000
vn 0.0000 0.0000 1.0000
vn -0.0409 -0.0393 0.9984
vn -0.0409 -0.0393 0.9984
vn -0.0409 -0.0393 0.9984
vn -0.2408 0.0304 0.9701
vn -0.2408 0.0304 0.9701
vn -0.2408 0.0304 0.9701
vn 0.0883 0.0065 0.9961
vn 0.0883 0.0065 0.9961
vn 0.0883 0.0065 0.9961
vn 0.0000 0.0000 1.0000
vn 0.0000 0.0000 1.0000
vn 0.0000 0.0000 1.0000
vn 0.0237 -0.0452 0.9987
vn 0.0237 -0.0452 0.9987
vn 0.0237 -0.0452 0.9987
vn 0.0855 0.9943 0.0634
vn 0.0855 0.9943 0.0634
vn 0.0855 0.9943 0.0634
vn -0.0834 0.9902 -0.1124
vn -0.0834 0.9902 -0.1124
vn -0.0834 0.9902 -0.1124
vn -0.0858 0.9908 0.1045
vn -0.0858 0.9908 0.1045
vn -0.0858 0.9908 0.1045
vn -0.1248 0.9918 -0.0265
vn -0.1248 0.9918 -0.0265
vn -0.1248 0.9918 -0.0265
vn 0.0000 0.9913 -0.1316
vn 0.0000 0.9913 -0.1316
vn 0.0000 0.9913 -0.1316
vn 0.0798 0.9946 0.0670
vn 0.0798 0.9946 0.0670
vn 0.0798 0.9946 0.0670
vn -0.0384 0.9934 -0.1080
vn -0.0384 0.9934 -0.1080
vn -0.0384 0.9934 -0.1080
vn 0.2665 0.9638 -0.0000
vn 0.2665 0.9638 -0.0000
vn 0.2665 0.9638 -0.0000
vn -0.0344 0.8930 -0.4487
vn -0.0344 0.8930 -0.4487
vn -0.0344 0.8930 -0.4487
vn 0.0000 0.9730 0.2310
vn 0.0000 0.9730 0.2310
vn 0.0000 0.9730 0.2310
vn 0.9984 -0.0024 -0.0573
vn 0.9957 -0.0114 -0.0920
vn 0.9369 0.0984 0.3354
vn 0.8393 0.1458 0.5237
vn 0.9981 0.0274 0.0547
vn 0.9981 0.0274 0.0547
vn 0.9981 0.0274 0.0547
vn 0.9955 -0.0131 -0.0933
vn 0.9955 -0.0131 -0.0933
vn 0.9955 -0.0131 -0.0933
vn 0.9988 -0.0483 -0.0000
vn 0.9988 -0.0483 -0.0000
vn 0.9988 -0.0483 -0.0000
vn 0.9800 0.0384 0.1954
vn 0.9800 0.0384 0.1954
vn 0.9800 0.0384 0.1954
vn 0.9942 0.0366 -0.1015
vn 0.9942 0.0366 -0.1015
vn 0.9942 0.0366 -0.1015
vn 0.9936 -0.0360 0.1073
vn 0.9936 -0.0360 0.1073
vn 0.9936 -0.0360 0.1073
vn 0.9958 0.0511 0.0759
vn 0.9958 0.0511 0.0759
vn 0.9958 0.0511 0.0759
vn 0.9993 -0.0361 -0.0000
vn 0.9993 -0.0361 -0.0000
vn 0.9993 -0.0361 -0.0000
vn 0.9886 -0.0088 -0.1506
vn 0.9886 -0.0088 -0.1506
vn 0.9886 -0.0088 -0.1506
vn -0.9959 -0.0772 -0.0479
vn -0.9959 -0.0772 -0.0479
vn -0.9959 -0.0772 -0.0479
vn -0.9983 0.0000 -0.0587
vn -0.9983 0.0000 -0.0587
vn -0.9983 0.0000 -0.0587
vn -0.9976 -0.0641 0.0262
vn -0.9976 -0.0641 0.0262
vn -0.9976 -0.0641 0.0262
vn -0.9734 0.1062 0.2030
vn -0.9734 0.1062 0.2030
vn -0.9734 0.1062 0.2030
vn -0.9997 -0.0263 -0.0000
vn -0.9997 -0.0263 -0.0000
vn -0.9997 -0.0263 -0.0000
vn -0.9752 0.1242 0.1830
vn -0.9752 0.1242 0.1830
vn -0.9752 0.1242 0.1830
vn -0.9950 0.0071 -0.0993
vn -0.9950 0.0071 -0.0993
vn -0.9950 0.0071 -0.0993
vn -0.9763 0.0000 0.2165
vn -0.9763 0.0000 0.2165
vn -0.9763 0.0000 0.2165
vn -0.6210 0.1327 -0.7725
vn -0.6210 0.1327 -0.7725
vn -0.6210 0.1327 -0.7725
vn 0.1312 0.0439 -0.9904
vn 0.1312 0.0439 -0.9904
vn 0.1312 0.0439 -0.9904
vn 0.0000 0.0000 -1.0000
vn 0.0000 0.0000 -1.0000
vn 0.0000 0.0000 -1.0000
vn -0.0614 -0.0446 -0.9971
vn -0.0614 -0.0446 -0.9971
vn -0.0614 -0.0446 -0.9971
vn -0.0963 0.0009 -0.9953
vn -0.0963 0.0009 -0.9953
vn -0.0963 0.0009 -0.9953
vn -0.2120 0.0545 -0.9757
vn -0.2120 0.0545 -0.9757
vn -0.2120 0.0545 -0.9757
vn 0.0000 -0.0867 -0.9962
vn 0.0000 -0.0867 -0.9962
vn 0.0000 -0.0867 -0.9962
vn 0.1134 0.0000 -0.9936
vn 0.1134 0.0000 -0.9936
vn 0.1134 0.0000 -0.9936
vn -0.0562 -0.9984 -0.0000
vn -0.0562 -0.9984 -0.0000
vn -0.0562 -0.9984 -0.0000
vn -0.0025 -0.9981 0.0611
vn -0.0025 -0.9981 0.0611
vn -0.0025 -0.9981 0.0611
vn 0.0000 -0.9823 0.1872
vn 0.0000 -0.9823 0.1872
vn 0.0000 -0.9823 0.1872
vn 0.1225 -0.9693 -0.2132
vn 0.1225 -0.9693 -0.2132
vn 0.1225 -0.9693 -0.2132
vn -0.2418 -0.9703 -0.0000
vn -0.2418 -0.9703 -0.0000
vn -0.2418 -0.9703 -0.0000
vn 0.2226 -0.9678 -0.1177
vn 0.2226 -0.9678 -0.1177
vn 0.2226 -0.9678 -0.1177
vn 0.9240 0.0000 0.3824
vn 0.9240 0.0000 0.3824
vn 0.9240 0.0000 0.3824
vn 0.9760 -0.1294 -0.1751
vn 0.9760 -0.1294 -0.1751
vn 0.9760 -0.1294 -0.1751
# 190 vertex normals

vt 0.3039 0.1778 0.0000
vt 0.4517 0.1815 0.0000
vt 0.3084 0.0302 0.0000
vt 0.4564 0.0337 0.0000
vt 0.2841 0.8212 0.0000
vt 0.4325 0.8180 0.0000
vt 0.2857 0.9694 0.0000
vt 0.4338 0.9673 0.0000
vt 0.3022 0.1942 0.0000
vt 0.4500 0.1998 0.0000
vt 0.2810 0.7835 0.0000
vt 0.4281 0.7891 0.0000
vt 0.4935 0.1939 0.0000
vt 0.6412 0.2000 0.0000
vt 0.4693 0.7838 0.0000
vt 0.6170 0.7891 0.0000
vt 0.6756 0.2101 0.0000
vt 0.8237 0.2077 0.0000
vt 0.6856 0.7999 0.0000
vt 0.8332 0.7973 0.0000
vt 0.1035 0.1946 0.0000
vt 0.2524 0.1940 0.0000
vt 0.1047 0.7854 0.0000
vt 0.2573 0.7827 0.0000
vt 0.3187 0.8206 0.0000
vt 0.3154 0.7848 0.0000
vt 0.3629 0.6867 0.0000
vt 0.3265 0.4684 0.0000
vt 0.4480 0.2548 0.0000
vt 0.4910 0.2490 0.0000
vt 0.4076 0.1849 0.0000
vt 0.4060 0.1981 0.0000
vt 0.4276 0.7352 0.0000
vt 0.4666 0.7299 0.0000
vt 0.4407 0.5337 0.0000
vt 0.4782 0.5281 0.0000
vt 0.4196 0.3969 0.0000
vt 0.3477 0.3450 0.0000
vt 0.3939 0.8640 0.0000
vt 0.3284 0.8993 0.0000
vt 0.3590 0.9682 0.0000
vt 0.7600 0.7923 0.0000
vt 0.4374 0.9296 0.0000
vt 0.5793 0.7923 0.0000
vt 0.2877 0.8724 0.0000
vt 0.2035 0.7779 0.0000
vt 0.4329 0.8893 0.0000
vt 0.5391 0.7861 0.0000
vt 0.5664 0.6038 0.0000
vt 0.6209 0.6745 0.0000
vt 0.6793 0.6853 0.0000
vt 0.5954 0.4041 0.0000
vt 0.2210 0.6610 0.0000
vt 0.1747 0.6086 0.0000
vt 0.2117 0.5193 0.0000
vt 0.7607 0.6202 0.0000
vt 0.7659 0.2979 0.0000
vt 0.3921 0.1045 0.0000
vt 0.4270 0.0698 0.0000
vt 0.5070 0.2699 0.0000
# 60 texture coords

g Box024
s 1
f 32/58/1 2/2/2 13/31/3 
f 9/25/4 18/39/5 19/40/6 
f 25/50/7 21/44/8 23/48/9 
f 30/56/10 7/20/11 20/42/12 
s 2
f 14/33/13 9/26/14 10/27/15 
f 13/32/16 2/10/17 12/29/18 
s 1
f 12/29/19 11/28/20 17/38/21 
f 10/27/22 15/35/23 14/33/24 
s 4
f 14/33/25 6/12/26 9/26/27 
f 16/37/28 12/29/29 15/35/30 
s 8
f 11/28/31 12/29/32 16/37/33 
s 16
f 15/35/34 10/27/35 11/28/36 
f 11/28/37 10/27/38 5/11/39 
f 10/27/40 9/26/41 5/11/42 
s 4
f 1/9/43 13/32/44 17/38/45 
s 2
f 17/38/46 11/28/47 1/9/48 
s 16
f 17/38/49 13/32/50 12/29/51 
f 11/28/52 5/11/53 1/9/54 
s 32
f 11/28/55 16/37/56 15/35/57 
s 2
f 20/41/58 7/7/59 19/40/60 
s 4
f 21/43/61 8/8/62 20/41/63 
s 8
f 19/40/64 23/47/65 21/43/66 
s 16
f 21/43/67 20/41/68 19/40/69 
s 8
f 22/45/70 5/5/71 9/25/72 
s 4
f 19/40/73 7/7/74 22/45/75 
s 32
f 22/45/76 9/25/77 19/40/78 
s 2
f 18/39/79 6/6/80 23/47/81 
s 64
f 23/47/82 19/40/83 18/39/84 
s 128
f 18/39/85 9/25/86 6/6/87 
s 64
f 24/49/88 15/36/89 12/30/90 34/60/91 
s 128
f 23/48/92 14/34/93 15/36/94 
s 256
f 15/36/95 24/49/96 23/48/97 
s 16
f 23/48/98 6/15/99 14/34/100 
s 2
f 24/49/101 26/52/102 25/50/103 
s 32
f 25/50/104 8/16/105 21/44/106 
s 4
f 25/50/107 23/48/108 24/49/109 
s 1
f 24/49/110 34/60/111 26/52/112 
s 4
f 26/52/113 2/13/114 4/14/115 
s 8
f 26/52/116 4/14/117 25/50/118 
s 1
f 5/24/119 22/46/120 27/53/121 
s 8
f 7/23/122 3/21/123 28/54/124 
s 16
f 27/53/125 22/46/126 7/23/127 
s 32
f 7/23/128 28/54/129 27/53/130 
s 1
f 3/21/131 1/22/132 29/55/133 
s 2
f 29/55/134 27/53/135 28/54/136 
s 4
f 28/54/137 3/21/138 29/55/139 
s 32
f 29/55/140 1/22/141 5/24/142 
s 64
f 5/24/143 27/53/144 29/55/145 
s 2
f 4/17/146 31/57/147 30/56/148 
s 64
f 20/42/149 8/19/150 25/51/151 
s 128
f 25/51/152 30/56/153 20/42/154 
s 16
f 30/56/155 25/51/156 4/17/157 
s 32
f 3/18/158 30/56/159 31/57/160 
s 64
f 31/57/161 4/17/162 3/18/163 
s 256
f 30/56/164 3/18/165 7/20/166 
s 128
f 1/1/167 3/3/168 32/58/169 
s 8
f 32/58/170 13/31/171 1/1/172 
s 512
f 3/3/173 4/4/174 33/59/175 
s 2
f 33/59/176 32/58/177 3/3/178 
s 32
f 33/59/179 4/4/180 2/2/181 
s 16
f 2/2/182 32/58/183 33/59/184 
s 128
f 12/30/185 2/13/186 34/60/187 
s 256
f 34/60/188 2/13/189 26/52/190 
# 1 polygons - 62 triangles

